<?xml version="1.0" encoding="UTF-8"?>
<svg width="640" height="640" viewBox="0 0 640 640" xmlns="http://www.w3.org/2000/svg">
  <defs>
    <linearGradient id="purpleBlue" x1="0%" y1="0%" x2="100%" y2="100%">
      <stop offset="0%" stop-color="#9C27B0" stop-opacity="0.6" />
      <stop offset="50%" stop-color="#673AB7" stop-opacity="0.8" />
      <stop offset="100%" stop-color="#3F51B5" stop-opacity="0.6" />
    </linearGradient>
  </defs>

  <!-- Main abstract shape with multiple layers to create depth -->
  <g fill="none">
    <!-- Outermost layer -->
    <path d="M320 40C180 40 60 160 60 300C60 440 180 560 320 560C460 560 580 440 580 300C580 160 460 40 320 40Z" stroke="url(#purpleBlue)" stroke-width="1.5" stroke-opacity="0.5" transform="rotate(10, 320, 320)" />

    <!-- Layer 2 -->
    <path d="M320 80C200 80 100 180 100 300C100 420 200 520 320 520C440 520 540 420 540 300C540 180 440 80 320 80Z" stroke="url(#purpleBlue)" stroke-width="1.5" stroke-opacity="0.6" transform="rotate(20, 320, 320)" />

    <!-- Layer 3 -->
    <path d="M320 120C220 120 140 200 140 300C140 400 220 480 320 480C420 480 500 400 500 300C500 200 420 120 320 120Z" stroke="url(#purpleBlue)" stroke-width="1.5" stroke-opacity="0.7" transform="rotate(30, 320, 320)" />

    <!-- Layer 4 -->
    <path d="M320 160C240 160 180 220 180 300C180 380 240 440 320 440C400 440 460 380 460 300C460 220 400 160 320 160Z" stroke="url(#purpleBlue)" stroke-width="1.5" stroke-opacity="0.8" transform="rotate(40, 320, 320)" />

    <!-- Layer 5 -->
    <path d="M320 200C260 200 220 240 220 300C220 360 260 400 320 400C380 400 420 360 420 300C420 240 380 200 320 200Z" stroke="url(#purpleBlue)" stroke-width="1.5" stroke-opacity="0.9" transform="rotate(50, 320, 320)" />

    <!-- Layer 6 (innermost) -->
    <path d="M320 240C280 240 260 260 260 300C260 340 280 360 320 360C360 360 380 340 380 300C380 260 360 240 320 240Z" stroke="url(#purpleBlue)" stroke-width="1.5" transform="rotate(60, 320, 320)" />

    <!-- Additional swirl element 1 -->
    <path d="M180 180C180 180 200 120 280 120C360 120 400 180 400 240C400 300 360 340 320 340C280 340 260 320 260 300" stroke="url(#purpleBlue)" stroke-width="1.5" stroke-opacity="0.7" fill="none" transform="rotate(15, 320, 320)" />

    <!-- Additional swirl element 2 -->
    <path d="M200 400C200 400 240 460 320 460C400 460 440 400 440 340C440 280 400 240 360 240C320 240 300 260 300 280" stroke="url(#purpleBlue)" stroke-width="1.5" stroke-opacity="0.7" fill="none" transform="rotate(-15, 320, 320)" />
  </g>

  <!-- Additional decorative elements -->
  <circle cx="320" cy="300" r="5" fill="#9C27B0" opacity="0.8">
    <animate attributeName="opacity" values="0.8;0.3;0.8" dur="3s" repeatCount="indefinite" />
  </circle>

  <circle cx="380" cy="240" r="3" fill="#3F51B5" opacity="0.6">
    <animate attributeName="opacity" values="0.6;0.2;0.6" dur="4s" repeatCount="indefinite" />
  </circle>

  <circle cx="260" cy="360" r="3" fill="#673AB7" opacity="0.7">
    <animate attributeName="opacity" values="0.7;0.3;0.7" dur="3.5s" repeatCount="indefinite" />
  </circle>
</svg>